<svg width="400" height="150" xmlns="http://www.w3.org/2000/svg">
 <defs>
  <style>.cls-1{fill:#1e1e1e;}.cls-2{fill:#204294;}</style>
 </defs>
 <g>
  <title>background</title>
  <rect fill="none" id="canvas_background" height="152" width="402" y="-1" x="-1"/>
 </g>
 <g>
  <title>Layer 1</title>
  <path id="svg_1" d="m100.93,95.23l-8.62,-6.13a4.54,4.54 0 0 0 -5.88,0.5c-3.82,3.89 -8.1,6.32 -14.53,6.32c-10.6,0 -18.07,-8.93 -18.07,-20.28l0,0c0,-11.36 7.47,-20.29 18.07,-20.29c6.43,0 10.71,2.44 14.53,6.32a4.55,4.55 0 0 0 5.88,0.51l8.62,-6.14a4.51,4.51 0 0 0 0.76,-6.64c-6.83,-7.8 -16,-13.2 -30.44,-13.2c-21.63,0 -39.05,16.55 -39.05,39.16l0,0.55c0,22.61 17.42,39.16 39.05,39.16c14.46,0 23.61,-5.39 30.44,-13.19a4.52,4.52 0 0 0 -0.76,-6.65z" class="cls-1"/>
  <path id="svg_2" d="m258.59,38.8l-10.24,23.2a4.57,4.57 0 0 1 -8.51,0.11l-10.29,-23.31a4.53,4.53 0 0 0 -4,-2.36l-12.23,0a4.47,4.47 0 0 0 -4.47,4.47l0,69.65a4.51,4.51 0 0 0 4.51,4.51l9,0a4.51,4.51 0 0 0 4.51,-4.51l0,-25.56a4.53,4.53 0 0 1 8.42,-2.31l4.72,8a4.75,4.75 0 0 0 8.18,0l4.72,-8a4.53,4.53 0 0 1 8.39,2.31l0,25.57a4.51,4.51 0 0 0 4.51,4.51l9,0a4.51,4.51 0 0 0 4.51,-4.51l0,-69.66a4.47,4.47 0 0 0 -4.47,-4.47l-12.28,0a4.53,4.53 0 0 0 -3.98,2.36z" class="cls-1"/>
  <path id="svg_3" d="m189.23,95.23l-8.61,-6.13a4.56,4.56 0 0 0 -5.89,0.5c-3.82,3.89 -8.09,6.32 -14.52,6.32c-10.6,0 -18.07,-8.93 -18.07,-20.28l0,0c0,-11.36 7.47,-20.29 18.07,-20.29c6.43,0 10.7,2.44 14.52,6.32a4.56,4.56 0 0 0 5.89,0.51l8.61,-6.14a4.5,4.5 0 0 0 0.76,-6.64c-6.82,-7.8 -16,-13.2 -30.43,-13.2c-21.64,0 -39.05,16.55 -39.05,39.16l0,0.55c0,22.61 17.41,39.16 39.05,39.16c14.46,0 23.61,-5.39 30.43,-13.19a4.51,4.51 0 0 0 -0.76,-6.65z" class="cls-1"/>
  <path id="svg_4" d="m371,36.44l-69.54,0a4.48,4.48 0 0 0 -4.48,4.49l0,69.63a4.51,4.51 0 0 0 4.51,4.51s0.6,0 0.85,-0.08l0,0a4.6,4.6 0 0 0 2.34,-1.22l69.55,-69.47a4.54,4.54 0 0 0 1.44,-3.55a4.62,4.62 0 0 0 -4.67,-4.31z" class="cls-2"/>
 </g>
</svg>